<svg xmlns="http://www.w3.org/2000/svg" width="18" height="18">
    <path data-name="패스 21084" d="M9 0a9 9 0 1 1-9 9 9 9 0 0 1 9-9z" style="fill:#ff6160"/>
    <path data-name="패스 20107" d="M41.818-3445.82a.818.818 0 0 0-.818.82.818.818 0 0 0 .818.818.818.818 0 0 0 .818-.818.818.818 0 0 0-.818-.818m0-1.818a.82.82 0 0 1-.818-.818v-5.726a.82.82 0 0 1 .818-.818.82.82 0 0 1 .818.818v5.726a.82.82 0 0 1-.818.818" transform="translate(-33 3458.592)" style="fill:#fff;stroke:#fff;stroke-width:.5px;fill-rule:evenodd"/>
</svg>
