<svg xmlns="http://www.w3.org/2000/svg" width="24" height="24">
    <path style="fill:none" d="M0 0h24v24H0z"/>
    <path d="M20.591 13.409a8.12 8.12 0 0 1-7.182 7.182v1a.909.909 0 1 1-1.818 0v-1a7.954 7.954 0 0 1-7.182-7.182h-1a.909.909 0 0 1 0-1.818h1a7.954 7.954 0 0 1 7.182-7.182v-1a.909.909 0 0 1 1.818 0v1a8.12 8.12 0 0 1 7.182 7.182h1a.909.909 0 1 1 0 1.818zM12.5 18.864A6.364 6.364 0 1 0 6.136 12.5a6.324 6.324 0 0 0 6.364 6.364zm0-2.727a3.636 3.636 0 1 1 3.636-3.637 3.647 3.647 0 0 1-3.636 3.636zm0-1.818a1.818 1.818 0 1 0-1.818-1.819 1.824 1.824 0 0 0 1.818 1.818z" transform="translate(-.836 -.837)" style="fill:#fff"/>
</svg>
