<svg xmlns="http://www.w3.org/2000/svg" width="24" height="24">
    <g data-name="Icon Home">
        <path data-name="패스 357" d="M20.6 6.858 11.347.246a1.323 1.323 0 0 0-1.537 0L.554 6.858a1.323 1.323 0 0 0 1.537 2.153l.554-.4v11.225a1.322 1.322 0 0 0 1.322 1.322h13.224a1.322 1.322 0 0 0 1.322-1.322V8.615a2.254 2.254 0 0 0 1.321.642 1.323 1.323 0 0 0 .77-2.4zm-4.731 11.655h-2.645v-3.967a2.645 2.645 0 1 0-5.29 0v3.967H5.29V6.726l5.29-3.778 5.29 3.778z" transform="translate(1.421 1.421)" style="fill:#8d8f91"/>
    </g>
</svg>
