<svg xmlns="http://www.w3.org/2000/svg" width="14.153" height="14.082">
    <defs>
        <style>
            .cls-2{fill:#8d8f91;stroke:#8d8f91;stroke-width:.5px}
        </style>
    </defs>
    <g id="landmark" transform="translate(.082)">
        <g id="noun_Eiffel_Tower_2673073" data-name="noun_Eiffel Tower_2673073" transform="translate(.168 .179)">
            <g id="그룹_9916" data-name="그룹 9916">
                <g id="그룹_9912" data-name="그룹 9912" transform="translate(6.613)">
                    <g id="그룹_9911" data-name="그룹 9911">
                        <path id="패스_21306" data-name="패스 21306" class="cls-2" d="M15.927 2.6H15.5l.213-2.6z" transform="translate(-15.5)"/>
                    </g>
                </g>
                <g id="그룹_9913" data-name="그룹 9913" transform="translate(0 12.8)">
                    <path id="패스_21307" data-name="패스 21307" class="cls-2" d="M13.227 30.853H.427a.427.427 0 0 1 0-.853h12.8a.427.427 0 1 1 0 .853z" transform="translate(0 -30)"/>
                </g>
                <g id="그룹_9914" data-name="그룹 9914" transform="translate(5.475 1.707)">
                    <path id="패스_21308" data-name="패스 21308" class="cls-2" d="M15.535 10.147a28.613 28.613 0 0 1-.5-4.867L14.183 4l-.853 1.28a28.613 28.613 0 0 1-.5 4.867z" transform="translate(-12.831 -4)"/>
                </g>
                <g id="그룹_9915" data-name="그룹 9915" transform="translate(2.133 8.707)">
                    <path id="패스_21309" data-name="패스 21309" class="cls-2" d="M11.378 20.406H8.009A37.479 37.479 0 0 1 5 24.926h2.56a2.133 2.133 0 0 1 4.267 0h2.56a37.48 37.48 0 0 1-3.009-4.52z" transform="translate(-5 -20.406)"/>
                </g>
            </g>
        </g>
    </g>
</svg>
