<svg xmlns="http://www.w3.org/2000/svg" width="42" height="42">
    <path style="fill:none" d="M0 0h42v42H0z"/>
    <path d="m1598.321-2.431-6.628-6.769a.86.86 0 0 1-.393-.723.857.857 0 0 1 .089-.382.86.86 0 0 1 .17-.249.863.863 0 0 1 .089-.079l6.673-6.81a.833.833 0 0 1 1.193 0 .874.874 0 0 1 0 1.218l-5.331 5.441h14.256a.861.861 0 0 1 .861.861.861.861 0 0 1-.861.861h-14.224l5.3 5.408a.874.874 0 0 1 0 1.218.834.834 0 0 1-.6.252.833.833 0 0 1-.594-.247z" transform="translate(-1590.3 30.679)" style="fill:#fff"/>
</svg>
