<svg xmlns="http://www.w3.org/2000/svg" width="42" height="42" viewBox="0 0 42 42">
    <g data-name="그룹 9901">
        <g data-name="그룹 9796">
            <path data-name="Notification Icon" d="M7.125 16.625h4.75a2.375 2.375 0 0 1-4.75 0zm-5.938-1.187a1.187 1.187 0 1 1 0-2.375h.594A5.169 5.169 0 0 0 3.562 9.5V5.938A5.881 5.881 0 0 1 9.5 0a5.88 5.88 0 0 1 5.937 5.938V9.5a5.167 5.167 0 0 0 1.782 3.563h.594a1.187 1.187 0 1 1 0 2.375z" transform="translate(11.5 12.447)" style="fill:#fff"/>
            <path data-name="패스 21271" d="M0 0v3.477" transform="translate(21 10.554)" style="fill:none;stroke:#fff;stroke-linecap:round;stroke-width:2px"/>
        </g>
    </g>
</svg>
