<svg id="onboarding2" xmlns="http://www.w3.org/2000/svg" width="184.312" height="315.604">
    <defs>
        <style>
            .cls-2{fill:#eb4b34}.cls-3{fill:#e9351b}.cls-5{fill:#ca290e}.cls-6{fill:#590000}
        </style>
    </defs>
    <g id="그룹_9789" data-name="그룹 9789" transform="translate(-242.178 -233.431)" style="opacity:.8">
        <g id="그룹_9787" data-name="그룹 9787" transform="translate(242.178 233.431)">
            <path id="패스_21216" data-name="패스 21216" class="cls-2" d="M426.49 253.5c0-6.6-1.783-20.064-11.95-20.064H254.126c-10.168 0-11.948 13.464-11.948 20.064v32.454H426.49z" transform="translate(-242.178 -233.431)"/>
            <path id="패스_21217" data-name="패스 21217" class="cls-3" d="M242.178 267.448v179.905a11.949 11.949 0 0 0 11.948 11.947H414.54a11.949 11.949 0 0 0 11.95-11.948V267.448z" transform="translate(-242.178 -214.93)"/>
        </g>
        <path id="사각형_6702" data-name="사각형 6702" transform="translate(242.178 281.194)" style="fill:#ef6e5b" d="M0 0h184.311v9.51H0z"/>
        <g id="그룹_9788" data-name="그룹 9788" transform="translate(251.918 290.704)">
            <path id="사각형_6703" data-name="사각형 6703" class="cls-5" d="M0 0h78.357v56.731H0z"/>
            <path id="사각형_6704" data-name="사각형 6704" class="cls-5" transform="translate(88.098)" d="M0 0h78.356v56.731H0z"/>
            <path id="패스_21218" data-name="패스 21218" class="cls-6" d="M303.865 270.528h-51.59a15.07 15.07 0 0 0 15.07 15.07h36.52a15.068 15.068 0 0 0 15.068-15.07z" transform="translate(-246.427 -270.528)"/>
            <path id="사각형_6705" data-name="사각형 6705" class="cls-2" transform="translate(0 28.366)" d="M0 0h78.357v28.366H0z"/>
            <path id="패스_21219" data-name="패스 21219" class="cls-6" d="M360.928 270.528h-51.59a15.071 15.071 0 0 0 15.071 15.07h36.519A15.07 15.07 0 0 0 376 270.528z" transform="translate(-215.391 -270.528)"/>
            <path id="사각형_6706" data-name="사각형 6706" class="cls-2" transform="translate(88.098 28.366)" d="M0 0h78.356v28.366H0z"/>
        </g>
        <path id="패스_21220" data-name="패스 21220" d="m334.158 355.031 17.395-8.674h-34.239l18.286-13.285h-41.9c-3.63 0-5.754 1.93-5.827 4.857 0 2.676.922 3.957 6.707 8.6l-14.724 8.5 14.724 8.5c-5.785 4.646-6.707 5.927-6.707 8.6.073 2.926 2.2 4.857 5.827 4.857h41.9L317.314 363.7h34.239zm-39.281 8.255v-16.51c2.517 2.015 5.912 4.644 10.5 8.255l11.393-8.275v16.55l-11.393-8.275c-4.589 3.611-7.983 6.238-10.5 8.255z" transform="translate(20.49 54.193)" style="fill:#fff"/>
        <path id="사각형_6707" data-name="사각형 6707" class="cls-3" transform="translate(257.767 538.87)" d="M0 0h154.757v10.165H0z"/>
        <path id="사각형_6708" data-name="사각형 6708" class="cls-5" transform="translate(304.698 477.802)" d="M0 0h60.897v61.068H0z"/>
    </g>
</svg>
