<svg xmlns="http://www.w3.org/2000/svg" width="24" height="24">
    <g data-name="Icon Setting">
        <path data-name="패스 108" d="m16.94 6.623 1.4-2.675-1.782-1.783-2.675 1.4a4.563 4.563 0 0 0-1.4-.509L11.463 0H8.916L7.9 2.929a5.323 5.323 0 0 0-1.274.509l-2.675-1.4-1.913 1.91 1.4 2.675A5.323 5.323 0 0 0 2.929 7.9L0 8.916v2.547l2.929 1.019c.127.509.382.892.509 1.4l-1.4 2.675 1.783 1.783 2.679-1.4a4.563 4.563 0 0 0 1.4.509l1.019 2.929h2.547l1.019-2.929c.509-.127.892-.382 1.4-.509l2.675 1.4 1.783-1.783-1.4-2.675a4.563 4.563 0 0 0 .509-1.4l2.929-1.019V8.916L17.449 7.9a5.323 5.323 0 0 0-.509-1.277zm-6.751 7.387a3.753 3.753 0 0 1-3.821-3.821 3.753 3.753 0 0 1 3.821-3.821 3.753 3.753 0 0 1 3.821 3.821 3.753 3.753 0 0 1-3.821 3.821z" transform="translate(1.811 1.811)" style="fill:#ff6160"/>
    </g>
</svg>
